<?xml version="1.0" encoding="utf-8"?>
<!-- Generator: Adobe Illustrator 13.0.0, SVG Export Plug-In . SVG Version: 6.00 Build 14948)  -->
<!DOCTYPE svg PUBLIC "-//W3C//DTD SVG 1.1//EN" "http://www.w3.org/Graphics/SVG/1.1/DTD/svg11.dtd">
<svg version="1.1" id="Слой_1" xmlns="http://www.w3.org/2000/svg" xmlns:xlink="http://www.w3.org/1999/xlink" x="0px" y="0px"
	 width="380px" height="434.983px" viewBox="0 0 380 434.983" enable-background="new 0 0 380 434.983" xml:space="preserve">
<circle fill="#1A171B" cx="190" cy="190" r="190"/>
<g id="XMLID_1_">
	<g>
		<path fill="#FFFFFF" d="M190,23c92.23,0,167,74.8,167,167c0,92.2-74.77,167-167,167c-92.23,0-167-74.8-167-167
			C23,97.801,97.77,23,190,23z"/>
	</g>
	<g>
	</g>
</g>
<g>
	<path fill="#1A171B" d="M188.513,149.983c-78.7,0-142.5,63.799-142.5,142.5s63.8,142.5,142.5,142.5s142.5-63.799,142.5-142.5
		S267.213,149.983,188.513,149.983z M188.513,411.983c-65.998,0-119.5-53.502-119.5-119.5s53.502-119.5,119.5-119.5
		s119.5,53.502,119.5,119.5S254.511,411.983,188.513,411.983z"/>
	<circle fill="#FFFFFF" cx="188.513" cy="292.483" r="119.5"/>
</g>
<g>
	<circle fill="#1A171B" cx="188.513" cy="130.482" r="83"/>
	<circle fill="#FFFFFF" cx="188.513" cy="130.482" r="60"/>
</g>
</svg>
